<?xml version="1.0" encoding="utf-8"?>
<!-- Generator: Adobe Illustrator 20.0.0, SVG Export Plug-In . SVG Version: 6.00 Build 0)  -->
<svg version="1.1" id="Calque_1" xmlns="http://www.w3.org/2000/svg" xmlns:xlink="http://www.w3.org/1999/xlink" x="0px" y="0px"
	 viewBox="0 0 80 80.2" style="enable-background:new 0 0 80 80.2;" xml:space="preserve">
<style type="text/css">
	.st0{fill:#861043;stroke:#861043;stroke-miterlimit:10;}
	.st1{fill:none;stroke:#861043;stroke-miterlimit:10;}
	.st2{fill:#861043;}
	.st3{fill:none;stroke:#861043;stroke-width:1.8;stroke-miterlimit:10;}
	.st4{fill:none;stroke:#861043;stroke-width:1.8;stroke-miterlimit:10;stroke-dasharray:2.6487,2.6487;}
	.st5{fill:none;stroke:#861043;stroke-width:1.0008;stroke-miterlimit:10;}
	.st6{fill:none;stroke:#861043;stroke-width:1.0008;stroke-miterlimit:10;stroke-dasharray:2.6487,2.6487;}
	.st7{fill:none;stroke:#861043;stroke-width:1.0008;stroke-miterlimit:10;stroke-dasharray:3.091,3.091;}
	.st8{fill:none;stroke:#861043;stroke-width:2.52;stroke-miterlimit:10;}
	.st9{fill:none;stroke:#861043;stroke-miterlimit:10;stroke-dasharray:3.24;}
	.st10{clip-path:url(#861043);fill:none;stroke:#861043;stroke-miterlimit:10;}
	.st11{fill:none;}
	.st12{fill:none;stroke:#861043;stroke-linecap:square;stroke-linejoin:bevel;stroke-miterlimit:10;}
</style>
<polygon class="st2" points="45.6,22.5 45.6,3.5 34,3.5 34,22.5 28.7,22.5 39.8,36.5 51,22.5 "/>
<path class="st2" d="M72.4,42.4V54c-16.1,3.1-24.4,4.7-32.6,4.7S23.3,57.2,7.3,54V42.4c15.8,3.6,24.1,5.4,32.6,5.4
	S56.6,46.1,72.4,42.4 M74.5,39.8c-17.3,4-26,6-34.7,6s-17.3-2-34.7-6c0,3.8,0,11.4,0,16c17.3,3.4,26,5.1,34.7,5.1s17.3-1.7,34.7-5.1
	C74.5,50.4,74.5,44.8,74.5,39.8L74.5,39.8z"/>
<polygon class="st2" points="5.2,76.7 13,57.3 22.2,59 31.2,76.7 "/>
<polygon class="st2" points="74.5,76.7 66.6,57.3 57.4,59 48.4,76.7 "/>
<rect x="4.9" y="46.2" transform="matrix(0.7206 -0.6933 0.6933 0.7206 -29.8393 20.373)" class="st2" width="11" height="2.1"/>
<rect x="6.7" y="48.8" transform="matrix(0.7216 -0.6923 0.6923 0.7216 -30.4429 24.0706)" class="st2" width="15.9" height="2.1"/>
<rect x="12.5" y="50.2" transform="matrix(0.7235 -0.6903 0.6903 0.7235 -29.7243 28.2757)" class="st2" width="15.8" height="2.1"/>
<rect x="8.1" y="55.1" transform="matrix(0.725 -0.6888 0.6888 0.725 -32.5178 30.8899)" class="st2" width="28.7" height="2.1"/>
<rect x="24.5" y="51.5" transform="matrix(0.7278 -0.6858 0.6858 0.7278 -26.9725 37.2049)" class="st2" width="17.7" height="2.1"/>
<rect x="30.8" y="51.9" transform="matrix(0.7287 -0.6848 0.6848 0.7287 -25.331 41.8899)" class="st2" width="18.7" height="2.1"/>
<rect x="36.9" y="51.4" transform="matrix(0.7292 -0.6843 0.6843 0.7292 -22.954 46.882)" class="st2" width="21.8" height="2.1"/>
<rect x="44.2" y="50.3" transform="matrix(0.7226 -0.6913 0.6913 0.7226 -20.0652 52.7533)" class="st2" width="23" height="2.1"/>
<rect x="51.4" y="49.1" transform="matrix(0.7226 -0.6913 0.6913 0.7226 -17.017 57.9323)" class="st2" width="24.6" height="2.1"/>
<rect x="61.8" y="50.8" transform="matrix(0.7226 -0.6913 0.6913 0.7226 -16.8542 61.8005)" class="st2" width="13.6" height="2.1"/>
</svg>

